Coordinates
version=1
nRows=8
nColumns=63
inDegrees=yes

Units are S.I. units (second, meters, Newtons, ...)
If the header above contains a line with 'inDegrees', this indicates whether rotational values are in degrees (yes) or radians (no).

endheader
time	pelvis_tilt	pelvis_list	pelvis_rotation	pelvis_tx	pelvis_ty	pelvis_tz	hip_flexion_r	hip_adduction_r	hip_rotation_r	knee_angle_r	knee_angle_r_beta	ankle_angle_r	subtalar_angle_r	mtp_angle_r	hip_flexion_l	hip_adduction_l	hip_rotation_l	knee_angle_l	knee_angle_l_beta	ankle_angle_l	subtalar_angle_l	mtp_angle_l	L5_S1_Flex_Ext	L5_S1_Lat_Bending	L5_S1_axial_rotation	L4_L5_Flex_Ext	L4_L5_Lat_Bending	L4_L5_axial_rotation	L3_L4_Flex_Ext	L3_L4_Lat_Bending	L3_L4_axial_rotation	L2_L3_Flex_Ext	L2_L3_Lat_Bending	L2_L3_axial_rotation	L1_L2_Flex_Ext	L1_L2_Lat_Bending	L1_L2_axial_rotation	L1_T12_Flex_Ext	L1_T12_Lat_Bending	L1_T12_axial_rotation	Abs_r3	Abs_r2	Abs_r1	Abs_t1	Abs_t2	neck_flexion	neck_bending	neck_rotation	arm_flex_r	arm_add_r	arm_rot_r	elbow_flex_r	pro_sup_r	wrist_flex_r	wrist_dev_r	arm_flex_l	arm_add_l	arm_rot_l	elbow_flex_l	pro_sup_l	wrist_flex_l	wrist_dev_l
1.250000	4.891289	-3.249161	97.239731	0.230897	0.975955	0.470126	10.841107	4.176812	-14.444862	8.712847	0.152068	16.793747	-10.248919	0.000000	9.920537	-5.535684	-1.731087	5.352353	0.093416	26.802121	13.465674	0.000000	0.091586	0.572821	-1.022872	0.170084	0.761852	-1.086801	0.150466	1.392758	-1.086801	0.104674	1.392758	-0.895013	0.085047	1.168097	-0.831083	0.052332	0.887300	-0.767154	0.654189	6.479869	-5.688907	0.000000	0.000000	24.272004	-2.024660	-2.734754	27.816403	-10.152001	-0.428052	98.021178	46.471184	-1.768115	5.956919	19.284470	-4.075867	-1.585239	100.571510	88.142166	-20.411087	-16.393192
1.266667	4.918801	-3.361234	97.023423	0.230684	0.975874	0.470356	11.009404	4.201945	-13.988507	8.802751	0.153637	16.542810	-10.524850	0.000000	9.854355	-5.537527	-1.553032	5.036172	0.087898	26.671519	13.228176	0.000000	0.095888	0.581390	-1.008204	0.178074	0.773249	-1.071217	0.157535	1.413592	-1.071217	0.109591	1.413592	-0.882178	0.089042	1.185571	-0.819166	0.054791	0.900574	-0.756153	0.684920	6.576803	-5.607327	0.000000	0.000000	24.477289	-2.269020	-2.623820	27.931110	-10.154624	-0.350227	98.087491	45.757201	-1.215523	5.929166	19.240885	-4.085129	-1.888493	100.748166	87.958647	-19.847004	-15.878341
1.283333	4.959330	-3.460302	96.841210	0.230394	0.975829	0.470515	11.147452	4.229480	-13.646799	8.855110	0.154551	16.372587	-10.651180	0.000000	9.770062	-5.542586	-1.256544	4.703275	0.082088	26.522629	12.875957	0.000000	0.099819	0.591214	-0.994856	0.185373	0.786314	-1.057035	0.163992	1.437477	-1.057035	0.114083	1.437477	-0.870499	0.092692	1.205603	-0.808321	0.057036	0.915790	-0.746142	0.712994	6.687928	-5.533092	0.000000	0.000000	24.691911	-2.488147	-2.483649	27.963000	-10.224454	-0.281071	98.250048	44.745245	-0.465353	6.063459	19.194969	-4.046660	-2.157373	100.920451	87.788343	-19.378829	-15.439382
1.300000	5.010839	-3.552381	96.666236	0.230064	0.975814	0.470585	11.264459	4.262295	-13.394084	8.871431	0.154836	16.286795	-10.640884	0.000000	9.677676	-5.558461	-0.958433	4.372445	0.076314	26.371393	12.505818	0.000000	0.104210	0.601753	-0.976996	0.193528	0.800331	-1.038058	0.171206	1.463101	-1.038058	0.119101	1.463101	-0.854871	0.096769	1.227094	-0.793809	0.059546	0.932115	-0.732747	0.744361	6.807146	-5.433757	0.000000	0.000000	24.913004	-2.678348	-2.344355	27.925243	-10.356275	-0.238238	98.490336	43.432938	0.393656	6.381800	19.105884	-3.930808	-2.403040	101.124733	87.659429	-18.991292	-15.036880
1.316667	5.075352	-3.646558	96.499901	0.229695	0.975812	0.470566	11.375696	4.297076	-13.302941	8.863709	0.154701	16.304865	-10.406043	0.000000	9.593705	-5.584035	-0.627987	4.056484	0.070799	26.213578	12.057363	0.000000	0.110575	0.613407	-0.955086	0.205348	0.815831	-1.014779	0.181663	1.491438	-1.014779	0.126376	1.491438	-0.835700	0.102680	1.250859	-0.776007	0.063182	0.950167	-0.716314	0.789824	6.938982	-5.311901	0.000000	0.000000	25.137250	-2.848294	-2.196818	27.846999	-10.540613	-0.225577	98.773960	41.726913	1.321354	6.891047	18.959873	-3.720061	-2.627849	101.375652	87.577777	-18.727061	-14.634146
1.333333	5.136079	-3.739989	96.308148	0.229367	0.975820	0.470470	11.478207	4.337902	-13.179408	8.826368	0.154049	16.354358	-10.188515	0.000000	9.512159	-5.616168	-0.423412	3.764520	0.065703	26.067074	11.673129	0.000000	0.117720	0.623814	-0.922753	0.218617	0.829672	-0.980425	0.193401	1.516740	-0.980425	0.134542	1.516740	-0.807409	0.109314	1.272081	-0.749737	0.067265	0.966287	-0.692065	0.840859	7.056703	-5.132075	0.000000	0.000000	25.364267	-2.992107	-2.059432	27.747615	-10.747947	-0.259803	99.084715	40.338306	2.061566	7.443042	18.782117	-3.430902	-2.844153	101.659693	87.532614	-18.491396	-14.169585
1.350000	5.188404	-3.832593	96.118908	0.229056	0.975817	0.470310	11.568413	4.372137	-13.098088	8.755939	0.152820	16.461296	-9.902509	0.000000	9.437368	-5.644513	-0.300083	3.494696	0.060994	25.936767	11.319877	0.000000	0.126469	0.632799	-0.882973	0.234866	0.841623	-0.938158	0.207776	1.538589	-0.938158	0.144542	1.538589	-0.772601	0.117439	1.290405	-0.717415	0.072264	0.980206	-0.662229	0.903356	7.158354	-4.910829	0.000000	0.000000	25.583194	-3.094009	-1.863573	27.639330	-10.966680	-0.332074	99.416134	39.643932	2.416836	8.047901	18.620963	-3.097966	-3.013682	101.917157	87.478811	-18.325834	-13.694937
1.366667	5.225021	-3.914707	95.899953	0.228830	0.975811	0.470131	11.654059	4.402988	-12.948215	8.683928	0.151563	16.564932	-9.725145	0.000000	9.366024	-5.672482	-0.345612	3.271296	0.057095	25.820520	11.048331	0.000000	0.133507	0.638312	-0.832070	0.247936	0.848956	-0.884074	0.219339	1.551993	-0.884074	0.152585	1.551993	-0.728061	0.123975	1.301647	-0.676057	0.076286	0.988746	-0.624052	0.953629	7.220718	-4.627722	0.000000	0.000000	25.800700	-3.200212	-1.783914	27.523560	-11.192452	-0.442333	99.744710	39.141403	2.622541	8.561952	18.497631	-2.746546	-3.161489	102.151817	87.452317	-18.178701	-13.143672
